<?xml version="1.0" encoding="UTF-8" standalone="no"?>
<!DOCTYPE svg PUBLIC "-//W3C//DTD SVG 1.1//EN"
 "http://www.w3.org/Graphics/SVG/1.1/DTD/svg11.dtd">
<!-- Generated by graphviz version 9.0.0 (20230911.1827)
 -->
<!-- Title: G Pages: 1 -->
<svg width="268pt" height="332pt"
 viewBox="0.00 0.00 268.30 332.00" xmlns="http://www.w3.org/2000/svg" xmlns:xlink="http://www.w3.org/1999/xlink">
<g id="graph0" class="graph" transform="scale(1 1) rotate(0) translate(4 328)">
<title>G</title>
<!-- sdml -->
<g id="node1" class="node">
<title>sdml</title>
<polygon fill="none" stroke="black" points="127.3,-324 82.05,-324 82.05,-328 70.05,-328 70.05,-288 127.3,-288 127.3,-324"/>
<polyline fill="none" stroke="black" points="70.05,-324 82.05,-324"/>
<text text-anchor="start" x="78.05" y="-308.45" font-family="Helvetica,Arial,sans-serif" font-size="9.00">«module»</text>
<text text-anchor="start" x="85.92" y="-297.55" font-family="Helvetica,Arial,sans-serif" font-weight="bold" font-style="italic" font-size="11.00">sdml</text>
</g>
<!-- owl -->
<g id="node2" class="node">
<title>owl</title>
<polygon fill="none" stroke="black" points="193.3,-252 148.05,-252 148.05,-256 136.05,-256 136.05,-216 193.3,-216 193.3,-252"/>
<polyline fill="none" stroke="black" points="136.05,-252 148.05,-252"/>
<text text-anchor="start" x="144.05" y="-236.45" font-family="Helvetica,Arial,sans-serif" font-size="9.00">«module»</text>
<text text-anchor="start" x="156.42" y="-225.55" font-family="Helvetica,Arial,sans-serif" font-style="italic" font-size="11.00">owl</text>
</g>
<!-- sdml&#45;&gt;owl -->
<g id="edge1" class="edge">
<title>sdml&#45;&gt;owl</title>
<path fill="none" stroke="black" stroke-dasharray="5,2" d="M114.99,-287.7C122.82,-279.39 132.35,-269.28 140.97,-260.14"/>
<polygon fill="black" stroke="black" points="147.71,-252.99 144.12,-263.35 145.11,-255.74 140.85,-260.27 140.85,-260.27 140.85,-260.27 145.11,-255.74 137.57,-257.18 147.71,-252.99"/>
</g>
<!-- skos -->
<g id="node3" class="node">
<title>skos</title>
<polygon fill="none" stroke="black" points="70.3,-180 25.05,-180 25.05,-184 13.05,-184 13.05,-144 70.3,-144 70.3,-180"/>
<polyline fill="none" stroke="black" points="13.05,-180 25.05,-180"/>
<text text-anchor="start" x="21.05" y="-164.45" font-family="Helvetica,Arial,sans-serif" font-size="9.00">«module»</text>
<text text-anchor="start" x="30.8" y="-153.55" font-family="Helvetica,Arial,sans-serif" font-style="italic" font-size="11.00">skos</text>
</g>
<!-- sdml&#45;&gt;skos -->
<g id="edge11" class="edge">
<title>sdml&#45;&gt;skos</title>
<path fill="none" stroke="black" stroke-dasharray="5,2" d="M91.68,-287.59C81.93,-263.29 64.14,-218.97 52.62,-190.27"/>
<polygon fill="black" stroke="black" points="48.99,-181.24 56.9,-188.85 50.4,-184.75 52.72,-190.52 52.72,-190.52 52.72,-190.52 50.4,-184.75 48.54,-192.2 48.99,-181.24"/>
</g>
<!-- rdfs -->
<g id="node4" class="node">
<title>rdfs</title>
<polygon fill="none" stroke="black" points="141.3,-108 96.05,-108 96.05,-112 84.05,-112 84.05,-72 141.3,-72 141.3,-108"/>
<polyline fill="none" stroke="black" points="84.05,-108 96.05,-108"/>
<text text-anchor="start" x="92.05" y="-92.45" font-family="Helvetica,Arial,sans-serif" font-size="9.00">«module»</text>
<text text-anchor="start" x="103.67" y="-81.55" font-family="Helvetica,Arial,sans-serif" font-style="italic" font-size="11.00">rdfs</text>
</g>
<!-- sdml&#45;&gt;rdfs -->
<g id="edge10" class="edge">
<title>sdml&#45;&gt;rdfs</title>
<path fill="none" stroke="black" stroke-dasharray="5,2" d="M99.79,-287.85C102.2,-251.07 107.88,-164.29 110.82,-119.24"/>
<polygon fill="black" stroke="black" points="111.46,-109.45 115.3,-119.72 111.22,-113.22 110.81,-119.43 110.81,-119.43 110.81,-119.43 111.22,-113.22 106.32,-119.13 111.46,-109.45"/>
</g>
<!-- rdf -->
<g id="node5" class="node">
<title>rdf</title>
<polygon fill="none" stroke="black" points="141.3,-36 96.05,-36 96.05,-40 84.05,-40 84.05,0 141.3,0 141.3,-36"/>
<polyline fill="none" stroke="black" points="84.05,-36 96.05,-36"/>
<text text-anchor="start" x="92.05" y="-20.45" font-family="Helvetica,Arial,sans-serif" font-size="9.00">«module»</text>
<text text-anchor="start" x="106.3" y="-9.55" font-family="Helvetica,Arial,sans-serif" font-style="italic" font-size="11.00">rdf</text>
</g>
<!-- sdml&#45;&gt;rdf -->
<g id="edge9" class="edge">
<title>sdml&#45;&gt;rdf</title>
<path fill="none" stroke="black" stroke-dasharray="5,2" d="M76.27,-287.67C42.73,-259.45 -14.75,-200.97 3.67,-144 17.18,-102.22 53.27,-65.86 80.25,-43.29"/>
<polygon fill="black" stroke="black" points="87.7,-37.22 82.79,-47.03 84.77,-39.61 79.95,-43.54 79.95,-43.54 79.95,-43.54 84.77,-39.61 77.11,-40.05 87.7,-37.22"/>
</g>
<!-- xsd -->
<g id="node6" class="node">
<title>xsd</title>
<polygon fill="none" stroke="black" points="260.3,-180 215.05,-180 215.05,-184 203.05,-184 203.05,-144 260.3,-144 260.3,-180"/>
<polyline fill="none" stroke="black" points="203.05,-180 215.05,-180"/>
<text text-anchor="start" x="211.05" y="-164.45" font-family="Helvetica,Arial,sans-serif" font-size="9.00">«module»</text>
<text text-anchor="start" x="223.42" y="-153.55" font-family="Helvetica,Arial,sans-serif" font-style="italic" font-size="11.00">xsd</text>
</g>
<!-- sdml&#45;&gt;xsd -->
<g id="edge14" class="edge">
<title>sdml&#45;&gt;xsd</title>
<path fill="none" stroke="black" stroke-dasharray="5,2" d="M127.71,-296.99C151.04,-289.14 183.05,-274.95 202.67,-252 217.27,-234.92 224.56,-210.32 228.18,-191.31"/>
<polygon fill="black" stroke="black" points="229.79,-181.51 232.61,-192.11 229.18,-185.24 228.17,-191.38 228.17,-191.38 228.17,-191.38 229.18,-185.24 223.73,-190.65 229.79,-181.51"/>
</g>
<!-- owl&#45;&gt;rdfs -->
<g id="edge5" class="edge">
<title>owl&#45;&gt;rdfs</title>
<path fill="none" stroke="black" stroke-dasharray="5,2" d="M158.3,-215.59C149.4,-191.29 133.17,-146.97 122.66,-118.27"/>
<polygon fill="black" stroke="black" points="119.36,-109.25 127.02,-117.1 120.66,-112.81 122.8,-118.65 122.8,-118.65 122.8,-118.65 120.66,-112.81 118.57,-120.19 119.36,-109.25"/>
</g>
<!-- owl&#45;&gt;rdf -->
<g id="edge2" class="edge">
<title>owl&#45;&gt;rdf</title>
<path fill="none" stroke="black" stroke-dasharray="5,2" d="M166.08,-215.91C167.93,-185.79 169.07,-121.73 150.67,-72 147.13,-62.43 141.38,-53.04 135.41,-44.87"/>
<polygon fill="black" stroke="black" points="129.43,-37.2 139.12,-42.32 131.75,-40.18 135.57,-45.09 135.57,-45.09 135.57,-45.09 131.75,-40.18 132.02,-47.85 129.43,-37.2"/>
</g>
<!-- owl&#45;&gt;xsd -->
<g id="edge6" class="edge">
<title>owl&#45;&gt;xsd</title>
<path fill="none" stroke="black" stroke-dasharray="5,2" d="M181.23,-215.7C189.18,-207.39 198.86,-197.28 207.61,-188.14"/>
<polygon fill="black" stroke="black" points="214.46,-180.98 210.79,-191.32 211.84,-183.72 207.54,-188.21 207.54,-188.21 207.54,-188.21 211.84,-183.72 204.29,-185.1 214.46,-180.98"/>
</g>
<!-- skos&#45;&gt;rdfs -->
<g id="edge13" class="edge">
<title>skos&#45;&gt;rdfs</title>
<path fill="none" stroke="black" stroke-dasharray="5,2" d="M59.22,-143.7C67.73,-135.3 78.11,-125.07 87.46,-115.86"/>
<polygon fill="black" stroke="black" points="94.46,-108.96 90.49,-119.19 91.76,-111.61 87.33,-115.98 87.33,-115.98 87.33,-115.98 91.76,-111.61 84.18,-112.78 94.46,-108.96"/>
</g>
<!-- skos&#45;&gt;rdf -->
<g id="edge12" class="edge">
<title>skos&#45;&gt;rdf</title>
<path fill="none" stroke="black" stroke-dasharray="5,2" d="M46.58,-143.69C52.13,-125.31 62.06,-95.72 74.67,-72 79.54,-62.85 85.78,-53.46 91.8,-45.18"/>
<polygon fill="black" stroke="black" points="97.68,-37.35 95.27,-48.05 95.41,-40.38 91.67,-45.35 91.67,-45.35 91.67,-45.35 95.41,-40.38 88.07,-42.65 97.68,-37.35"/>
</g>
<!-- rdfs&#45;&gt;rdf -->
<g id="edge4" class="edge">
<title>rdfs&#45;&gt;rdf</title>
<path fill="none" stroke="black" stroke-dasharray="5,2" d="M106.76,-71.7C106,-64.32 105.75,-55.52 106.03,-47.25"/>
<polygon fill="black" stroke="black" points="106.7,-37.32 110.52,-47.6 106.44,-41.09 106.03,-47.3 106.03,-47.3 106.03,-47.3 106.44,-41.09 101.54,-47 106.7,-37.32"/>
</g>
<!-- rdf&#45;&gt;rdfs -->
<g id="edge3" class="edge">
<title>rdf&#45;&gt;rdfs</title>
<path fill="none" stroke="black" stroke-dasharray="5,2" d="M118.57,-36.1C119.34,-43.45 119.59,-52.24 119.32,-60.53"/>
<polygon fill="black" stroke="black" points="118.67,-70.48 114.83,-60.21 118.91,-66.71 119.32,-60.5 119.32,-60.5 119.32,-60.5 118.91,-66.71 123.81,-60.8 118.67,-70.48"/>
</g>
<!-- xsd&#45;&gt;rdfs -->
<g id="edge8" class="edge">
<title>xsd&#45;&gt;rdfs</title>
<path fill="none" stroke="black" stroke-dasharray="5,2" d="M202.56,-143.88C187.03,-134.74 167.72,-123.38 150.99,-113.54"/>
<polygon fill="black" stroke="black" points="142.53,-108.56 153.43,-109.76 145.79,-110.48 151.15,-113.64 151.15,-113.64 151.15,-113.64 145.79,-110.48 148.87,-117.51 142.53,-108.56"/>
</g>
<!-- xsd&#45;&gt;rdf -->
<g id="edge7" class="edge">
<title>xsd&#45;&gt;rdf</title>
<path fill="none" stroke="black" stroke-dasharray="5,2" d="M226.32,-143.77C219.75,-124.66 207.15,-93.68 188.67,-72 178.17,-59.69 164.19,-48.87 151.09,-40.27"/>
<polygon fill="black" stroke="black" points="142.79,-35.06 153.65,-36.57 145.99,-37.07 151.26,-40.38 151.26,-40.38 151.26,-40.38 145.99,-37.07 148.87,-44.19 142.79,-35.06"/>
</g>
</g>
</svg>
