<?xml version="1.0" encoding="UTF-8" standalone="no"?><!DOCTYPE svg PUBLIC "-//W3C//DTD SVG 1.1//EN" "http://www.w3.org/Graphics/SVG/1.1/DTD/svg11.dtd"><!-- Generated by graphviz version 2.40.1 (20161225.0304)
 --><!-- Title: G Pages: 1 --><svg xmlns="http://www.w3.org/2000/svg" xmlns:xlink="http://www.w3.org/1999/xlink" width="577pt" height="428pt" viewBox="0.00 0.00 577.04 428.00">
<g id="graph0" class="graph" transform="scale(1 1) rotate(0) translate(4 424)">
<title>G</title>
<polygon fill="#ffffff" stroke="transparent" points="-4,4 -4,-424 573.04,-424 573.04,4 -4,4"/>
<!-- cli -->
<g id="node1" class="node">
<title>cli</title>
<polygon fill="none" stroke="#000000" points="205.04,-420 137.04,-420 133.04,-416 133.04,-384 201.04,-384 205.04,-388 205.04,-420"/>
<polyline fill="none" stroke="#000000" points="201.04,-416 133.04,-416 "/>
<polyline fill="none" stroke="#000000" points="201.04,-416 201.04,-384 "/>
<polyline fill="none" stroke="#000000" points="201.04,-416 205.04,-420 "/>
<text text-anchor="middle" x="169.04" y="-397.8" font-family="Times,serif" font-size="14.00" fill="#000000">cli</text>
</g>
<!-- parse -->
<g id="node4" class="node">
<title>parse</title>
<polygon fill="none" stroke="#000000" points="240.04,-186 172.04,-186 168.04,-182 168.04,-150 236.04,-150 240.04,-154 240.04,-186"/>
<polyline fill="none" stroke="#000000" points="236.04,-182 168.04,-182 "/>
<polyline fill="none" stroke="#000000" points="236.04,-182 236.04,-150 "/>
<polyline fill="none" stroke="#000000" points="236.04,-182 240.04,-186 "/>
<text text-anchor="middle" x="204.04" y="-163.8" font-family="Times,serif" font-size="14.00" fill="#000000">parse</text>
</g>
<!-- cli&#45;&gt;parse -->
<g id="edge1" class="edge">
<title>cli-&gt;parse</title>
<path fill="none" stroke="#c0c0c0" stroke-dasharray="5,2" d="M156.3225,-383.8408C135.1573,-351.1878 97.5273,-281.0254 124.04,-228 131.6913,-212.6974 145.3067,-200.2851 159.1607,-190.8055"/>
<polygon fill="#c0c0c0" stroke="#c0c0c0" points="167.7664,-185.2825 161.7811,-194.4709 163.5585,-187.9831 159.3505,-190.6837 159.3505,-190.6837 159.3505,-190.6837 163.5585,-187.9831 156.9199,-186.8966 167.7664,-185.2825 167.7664,-185.2825"/>
</g>
<!-- rdf -->
<g id="node5" class="node">
<title>rdf</title>
<polygon fill="none" stroke="#000000" points="77.04,-270 9.04,-270 5.04,-266 5.04,-234 73.04,-234 77.04,-238 77.04,-270"/>
<polyline fill="none" stroke="#000000" points="73.04,-266 5.04,-266 "/>
<polyline fill="none" stroke="#000000" points="73.04,-266 73.04,-234 "/>
<polyline fill="none" stroke="#000000" points="73.04,-266 77.04,-270 "/>
<text text-anchor="middle" x="41.04" y="-247.8" font-family="Times,serif" font-size="14.00" fill="#000000">rdf</text>
</g>
<!-- cli&#45;&gt;rdf -->
<g id="edge2" class="edge">
<title>cli-&gt;rdf</title>
<path fill="none" stroke="#c0c0c0" stroke-dasharray="5,2" d="M135.5203,-383.8293C120.5804,-374.5456 103.5678,-362.2058 91.04,-348 73.202,-327.7728 59.6502,-300.0537 51.185,-279.5997"/>
<polygon fill="#c0c0c0" stroke="#c0c0c0" points="47.4414,-270.2069 55.3241,-277.8302 49.2927,-274.8516 51.1439,-279.4963 51.1439,-279.4963 51.1439,-279.4963 49.2927,-274.8516 46.9636,-281.1624 47.4414,-270.2069 47.4414,-270.2069"/>
</g>
<!-- generate -->
<g id="node6" class="node">
<title>generate</title>
<polygon fill="none" stroke="#000000" points="301.04,-348 233.04,-348 229.04,-344 229.04,-312 297.04,-312 301.04,-316 301.04,-348"/>
<polyline fill="none" stroke="#000000" points="297.04,-344 229.04,-344 "/>
<polyline fill="none" stroke="#000000" points="297.04,-344 297.04,-312 "/>
<polyline fill="none" stroke="#000000" points="297.04,-344 301.04,-348 "/>
<text text-anchor="middle" x="265.04" y="-325.8" font-family="Times,serif" font-size="14.00" fill="#000000">generate</text>
</g>
<!-- cli&#45;&gt;generate -->
<g id="edge3" class="edge">
<title>cli-&gt;generate</title>
<path fill="none" stroke="#c0c0c0" stroke-dasharray="5,2" d="M193.2649,-383.8314C205.2028,-374.8779 219.7656,-363.9558 232.646,-354.2955"/>
<polygon fill="#c0c0c0" stroke="#c0c0c0" points="240.8229,-348.1628 235.5229,-357.7629 236.8229,-351.1628 232.8229,-354.1629 232.8229,-354.1629 232.8229,-354.1629 236.8229,-351.1628 230.1229,-350.5629 240.8229,-348.1628 240.8229,-348.1628"/>
</g>
<!-- tera -->
<g id="node7" class="node">
<title>tera</title>
<polygon fill="none" stroke="#000000" points="569.04,-270 501.04,-270 497.04,-266 497.04,-234 565.04,-234 569.04,-238 569.04,-270"/>
<polyline fill="none" stroke="#000000" points="565.04,-266 497.04,-266 "/>
<polyline fill="none" stroke="#000000" points="565.04,-266 565.04,-234 "/>
<polyline fill="none" stroke="#000000" points="565.04,-266 569.04,-270 "/>
<text text-anchor="middle" x="533.04" y="-247.8" font-family="Times,serif" font-size="14.00" fill="#000000">tera</text>
</g>
<!-- cli&#45;&gt;tera -->
<g id="edge4" class="edge">
<title>cli-&gt;tera</title>
<path fill="none" stroke="#c0c0c0" stroke-dasharray="5,2" d="M205.2142,-388.5471C264.0448,-366.4319 383.8592,-320.4045 483.04,-276 484.5807,-275.3102 486.1448,-274.6024 487.722,-273.8821"/>
<polygon fill="#c0c0c0" stroke="#c0c0c0" points="496.8248,-269.6617 489.6453,-277.9506 492.2886,-271.7649 487.7524,-273.8681 487.7524,-273.8681 487.7524,-273.8681 492.2886,-271.7649 485.8596,-269.7855 496.8248,-269.6617 496.8248,-269.6617"/>
</g>
<!-- core -->
<g id="node2" class="node">
<title>core</title>
<polygon fill="none" stroke="#000000" points="358.04,-108 290.04,-108 286.04,-104 286.04,-72 354.04,-72 358.04,-76 358.04,-108"/>
<polyline fill="none" stroke="#000000" points="354.04,-104 286.04,-104 "/>
<polyline fill="none" stroke="#000000" points="354.04,-104 354.04,-72 "/>
<polyline fill="none" stroke="#000000" points="354.04,-104 358.04,-108 "/>
<text text-anchor="middle" x="322.04" y="-85.8" font-family="Times,serif" font-size="14.00" fill="#000000">core</text>
</g>
<!-- error -->
<g id="node3" class="node">
<title>error</title>
<polygon fill="none" stroke="#000000" points="358.04,-36 290.04,-36 286.04,-32 286.04,0 354.04,0 358.04,-4 358.04,-36"/>
<polyline fill="none" stroke="#000000" points="354.04,-32 286.04,-32 "/>
<polyline fill="none" stroke="#000000" points="354.04,-32 354.04,0 "/>
<polyline fill="none" stroke="#000000" points="354.04,-32 358.04,-36 "/>
<text text-anchor="middle" x="322.04" y="-13.8" font-family="Times,serif" font-size="14.00" fill="#000000">error</text>
</g>
<!-- core&#45;&gt;error -->
<g id="edge5" class="edge">
<title>core-&gt;error</title>
<path fill="none" stroke="#c0c0c0" stroke-dasharray="5,2" d="M322.04,-71.8314C322.04,-64.131 322.04,-54.9743 322.04,-46.4166"/>
<polygon fill="#c0c0c0" stroke="#c0c0c0" points="322.04,-36.4133 326.5401,-46.4132 322.04,-41.4133 322.0401,-46.4133 322.0401,-46.4133 322.0401,-46.4133 322.04,-41.4133 317.5401,-46.4133 322.04,-36.4133 322.04,-36.4133"/>
</g>
<!-- parse&#45;&gt;core -->
<g id="edge6" class="edge">
<title>parse-&gt;core</title>
<path fill="none" stroke="#c0c0c0" stroke-dasharray="5,2" d="M231.4082,-149.9092C247.5257,-139.2552 268.1146,-125.6456 285.5943,-114.0912"/>
<polygon fill="#c0c0c0" stroke="#c0c0c0" points="294.4115,-108.2629 288.5508,-117.5313 290.2404,-111.0201 286.0693,-113.7773 286.0693,-113.7773 286.0693,-113.7773 290.2404,-111.0201 283.5878,-110.0233 294.4115,-108.2629 294.4115,-108.2629"/>
</g>
<!-- rdf&#45;&gt;core -->
<g id="edge7" class="edge">
<title>rdf-&gt;core</title>
<path fill="none" stroke="#c0c0c0" stroke-dasharray="5,2" d="M56.4145,-233.7913C77.3718,-210.0303 117.1212,-168.5916 159.04,-144 195.6248,-122.5376 241.8934,-108.2517 275.7805,-99.7948"/>
<polygon fill="#c0c0c0" stroke="#c0c0c0" points="285.8753,-97.3559 277.2118,-104.0786 281.0151,-98.5301 276.155,-99.7044 276.155,-99.7044 276.155,-99.7044 281.0151,-98.5301 275.0981,-95.3303 285.8753,-97.3559 285.8753,-97.3559"/>
</g>
<!-- rdf_source -->
<g id="node9" class="node">
<title>rdf_source</title>
<polygon fill="none" stroke="#000000" points="76.12,-192 -.04,-192 -.04,-144 82.12,-144 82.12,-186 76.12,-192"/>
<polyline fill="none" stroke="#000000" points="76.12,-192 76.12,-186 "/>
<polyline fill="none" stroke="#000000" points="82.12,-186 76.12,-186 "/>
<text text-anchor="middle" x="41.04" y="-172.2" font-family="Times,serif" font-size="14.00" fill="#000000">RDF</text>
<text text-anchor="middle" x="41.04" y="-155.4" font-family="Times,serif" font-size="14.00" fill="#000000">(NT/Turtle)</text>
</g>
<!-- rdf&#45;&gt;rdf_source -->
<g id="edge16" class="edge">
<title>rdf-&gt;rdf_source</title>
<path fill="none" stroke="#000000" d="M35.3616,-233.7733C34.4264,-224.5586 34.1033,-213.0676 34.3924,-202.2802"/>
<polygon fill="#000000" stroke="#000000" points="34.8571,-192.2505 38.8893,-202.4481 34.6256,-197.2451 34.3942,-202.2398 34.3942,-202.2398 34.3942,-202.2398 34.6256,-197.2451 29.899,-202.0314 34.8571,-192.2505 34.8571,-192.2505"/>
</g>
<!-- generate&#45;&gt;core -->
<g id="edge8" class="edge">
<title>generate-&gt;core</title>
<path fill="none" stroke="#c0c0c0" stroke-dasharray="5,2" d="M301.3895,-314.6768C303.964,-313.7314 306.5323,-312.8287 309.04,-312 370.451,-291.7071 410.3646,-327.0781 450.04,-276 493.6604,-219.8431 411.1916,-149.8787 359.4247,-113.8719"/>
<polygon fill="#c0c0c0" stroke="#c0c0c0" points="351.0916,-108.1823 361.8876,-110.1047 355.2209,-111.0017 359.3502,-113.8211 359.3502,-113.8211 359.3502,-113.8211 355.2209,-111.0017 356.8128,-117.5374 351.0916,-108.1823 351.0916,-108.1823"/>
</g>
<!-- generate&#45;&gt;parse -->
<g id="edge9" class="edge">
<title>generate-&gt;parse</title>
<path fill="none" stroke="#c0c0c0" stroke-dasharray="5,2" d="M258.1611,-311.7314C247.5439,-283.535 227.0871,-229.2071 214.5904,-196.0191"/>
<polygon fill="#c0c0c0" stroke="#c0c0c0" points="210.9874,-186.4503 218.7227,-194.2231 212.7493,-191.1296 214.5113,-195.8089 214.5113,-195.8089 214.5113,-195.8089 212.7493,-191.1296 210.3,-197.3947 210.9874,-186.4503 210.9874,-186.4503"/>
</g>
<!-- generate&#45;&gt;rdf -->
<g id="edge10" class="edge">
<title>generate-&gt;rdf</title>
<path fill="none" stroke="#c0c0c0" stroke-dasharray="5,2" d="M228.552,-317.2944C189.8746,-303.8263 128.7084,-282.5274 86.8219,-267.9419"/>
<polygon fill="#c0c0c0" stroke="#c0c0c0" points="77.1412,-264.571 88.0649,-263.6098 81.8631,-266.2152 86.5851,-267.8595 86.5851,-267.8595 86.5851,-267.8595 81.8631,-266.2152 85.1052,-272.1092 77.1412,-264.571 77.1412,-264.571"/>
</g>
<!-- generate&#45;&gt;tera -->
<g id="edge11" class="edge">
<title>generate-&gt;tera</title>
<path fill="none" stroke="#c0c0c0" stroke-dasharray="5,2" d="M301.1991,-323.4054C344.9982,-314.8816 420.6648,-298.4279 483.04,-276 484.6908,-275.4064 486.3598,-274.7758 488.0362,-274.1164"/>
<polygon fill="#c0c0c0" stroke="#c0c0c0" points="497.6409,-270.0826 490.1635,-278.1038 493.0309,-272.0187 488.421,-273.9548 488.421,-273.9548 488.421,-273.9548 493.0309,-272.0187 486.6785,-269.8059 497.6409,-270.0826 497.6409,-270.0826"/>
</g>
<!-- sdml_source -->
<g id="node8" class="node">
<title>sdml_source</title>
<polygon fill="none" stroke="#000000" points="199.04,-276 133.04,-276 133.04,-228 205.04,-228 205.04,-270 199.04,-276"/>
<polyline fill="none" stroke="#000000" points="199.04,-276 199.04,-270 "/>
<polyline fill="none" stroke="#000000" points="205.04,-270 199.04,-270 "/>
<text text-anchor="middle" x="169.04" y="-256.2" font-family="Times,serif" font-size="14.00" fill="#000000">Surface</text>
<text text-anchor="middle" x="169.04" y="-239.4" font-family="Times,serif" font-size="14.00" fill="#000000">Syntax</text>
</g>
<!-- generate&#45;&gt;sdml_source -->
<g id="edge14" class="edge">
<title>generate-&gt;sdml_source</title>
<path fill="none" stroke="#000000" d="M242.7744,-311.9092C232.0513,-303.1967 218.8956,-292.5077 206.6799,-282.5824"/>
<polygon fill="#000000" stroke="#000000" points="198.8231,-276.1988 209.422,-279.0122 202.7037,-279.3518 206.5843,-282.5048 206.5843,-282.5048 206.5843,-282.5048 202.7037,-279.3518 203.7466,-285.9973 198.8231,-276.1988 198.8231,-276.1988"/>
</g>
<!-- doc -->
<g id="node10" class="node">
<title>doc</title>
<polygon fill="none" stroke="#000000" points="328.5717,-276 261.5083,-276 261.5083,-228 334.5717,-228 334.5717,-270 328.5717,-276"/>
<polyline fill="none" stroke="#000000" points="328.5717,-276 328.5717,-270 "/>
<polyline fill="none" stroke="#000000" points="334.5717,-270 328.5717,-270 "/>
<text text-anchor="middle" x="298.04" y="-256.2" font-family="Times,serif" font-size="14.00" fill="#000000">document</text>
<text text-anchor="middle" x="298.04" y="-239.4" font-family="Times,serif" font-size="14.00" fill="#000000">(MD/Org)</text>
</g>
<!-- generate&#45;&gt;doc -->
<g id="edge17" class="edge">
<title>generate-&gt;doc</title>
<path fill="none" stroke="#000000" d="M272.6938,-311.9092C276.0288,-304.0265 280.0483,-294.5257 283.8937,-285.4366"/>
<polygon fill="#000000" stroke="#000000" points="287.802,-276.1988 288.0499,-287.1619 285.8538,-280.8036 283.9056,-285.4085 283.9056,-285.4085 283.9056,-285.4085 285.8538,-280.8036 279.7612,-283.6551 287.802,-276.1988 287.802,-276.1988"/>
</g>
<!-- diagrams -->
<g id="node11" class="node">
<title>diagrams</title>
<polygon fill="none" stroke="#000000" points="435.352,-276 352.728,-276 352.728,-228 441.352,-228 441.352,-270 435.352,-276"/>
<polyline fill="none" stroke="#000000" points="435.352,-276 435.352,-270 "/>
<polyline fill="none" stroke="#000000" points="441.352,-270 435.352,-270 "/>
<text text-anchor="middle" x="397.04" y="-256.2" font-family="Times,serif" font-size="14.00" fill="#000000">diagram</text>
<text text-anchor="middle" x="397.04" y="-239.4" font-family="Times,serif" font-size="14.00" fill="#000000">(ERD/UML)</text>
</g>
<!-- generate&#45;&gt;diagrams -->
<g id="edge18" class="edge">
<title>generate-&gt;diagrams</title>
<path fill="none" stroke="#000000" d="M295.6552,-311.9092C310.9611,-302.8648 329.8717,-291.6904 347.1989,-281.4515"/>
<polygon fill="#000000" stroke="#000000" points="356.0882,-276.1988 349.7682,-285.1603 351.7835,-278.7425 347.4789,-281.2861 347.4789,-281.2861 347.4789,-281.2861 351.7835,-278.7425 345.1896,-277.412 356.0882,-276.1988 356.0882,-276.1988"/>
</g>
<!-- tera&#45;&gt;core -->
<g id="edge12" class="edge">
<title>tera-&gt;core</title>
<path fill="none" stroke="#c0c0c0" stroke-dasharray="5,2" d="M529.2801,-233.6509C523.4494,-209.7344 509.9743,-168.124 483.04,-144 451.0595,-115.3562 403.3654,-101.8266 368.1836,-95.4846"/>
<polygon fill="#c0c0c0" stroke="#c0c0c0" points="358.1578,-93.809 368.7629,-91.0191 363.0894,-94.6333 368.021,-95.4575 368.021,-95.4575 368.021,-95.4575 363.0894,-94.6333 367.2792,-99.896 358.1578,-93.809 358.1578,-93.809"/>
</g>
<!-- sdml_source&#45;&gt;parse -->
<g id="edge13" class="edge">
<title>sdml_source-&gt;parse</title>
<path fill="none" stroke="#000000" d="M179.1635,-227.7037C183.3555,-217.6427 188.2389,-205.9227 192.5633,-195.5441"/>
<polygon fill="#000000" stroke="#000000" points="196.4974,-186.1023 196.805,-197.0639 194.5742,-190.7177 192.6511,-195.3331 192.6511,-195.3331 192.6511,-195.3331 194.5742,-190.7177 188.4973,-193.6023 196.4974,-186.1023 196.4974,-186.1023"/>
</g>
<!-- rdf_source&#45;&gt;rdf -->
<g id="edge15" class="edge">
<title>rdf_source-&gt;rdf</title>
<path fill="none" stroke="#000000" d="M47.2229,-192.2505C47.8892,-202.0769 47.9684,-213.4917 47.4604,-223.6955"/>
<polygon fill="#000000" stroke="#000000" points="46.7184,-233.7733 42.9649,-223.4698 47.0856,-228.7867 47.4527,-223.8002 47.4527,-223.8002 47.4527,-223.8002 47.0856,-228.7867 51.9406,-224.1307 46.7184,-233.7733 46.7184,-233.7733"/>
</g>
</g>
</svg>